<svg width="189" height="163" viewBox="0 0 189 163" fill="none" xmlns="http://www.w3.org/2000/svg">
<path d="M21.4601 118.474C13.918 123.062 9.08876 117.878 5.52104 110.89C0.47501 101.004 2.93348 76.5449 8.00006 68.1709C12.6499 60.4856 19.5102 57.0753 25.4619 60.7347" fill="white"/>
<path d="M21.4601 118.474C13.918 123.062 9.08876 117.878 5.52104 110.89C0.47501 101.004 2.93348 76.5449 8.00006 68.1709C12.6499 60.4856 19.5102 57.0753 25.4619 60.7347" stroke="black" stroke-width="4.99999" stroke-linecap="round" stroke-linejoin="round"/>
<path d="M71.073 3.88907C61.2029 -1.09516 55.081 15.9748 51.6241 34.6875C50.2816 41.9536 25.8313 56.2403 19.9885 73.227C16.1869 84.2782 15.2533 109.33 21.7503 118.155C32.8751 133.264 47.2166 140.905 64.9469 144.359C71.2318 145.583 78.4102 145.894 84.2777 145.537C103.546 144.365 150.346 161.481 155.284 160.165C169.004 156.511 160.964 140.624 152.144 137.312C147.871 135.708 117.909 120.254 123.645 120.163C137.735 119.939 154.722 121.366 170.685 123.629C194.574 127.017 188.552 93.6632 166.152 90.7209C155.658 89.3423 147.059 86.958 123.568 84.4312C136.219 80.5583 154.39 74.0516 166.952 71.8678C187.667 68.2663 175.249 38.558 150.015 43.4935C132.83 46.8549 102.529 56.2981 72.6685 54.8212C82.3431 43.2183 100.846 18.9223 71.0757 3.88817L71.073 3.88907Z" fill="white" stroke="black" stroke-width="4.99999" stroke-linecap="round" stroke-linejoin="round"/>
<path d="M124.084 81.6699C108.497 85.4086 101.351 90.8929 97.7134 92.9339C107.423 90.3234 109.816 89.4032 120.384 87.4013C122.176 87.0619 124.321 86.9621 126.939 87.258L124.084 81.6699Z" fill="black"/>
<path d="M123.554 117.666C114.158 117.822 102.863 120.265 95.8128 123.786C100.941 123.625 109.753 123.271 117.543 122.873C119.656 122.765 121.569 123.186 124.032 124.918C123.366 122.546 123.559 120.103 123.554 117.666L123.554 117.666Z" fill="black"/>
<path d="M30.8159 106.373C42.7308 111.343 46.1615 111.268 52.2432 112.769" stroke="black" stroke-width="4.99999" stroke-linecap="round" stroke-linejoin="round"/>
<path d="M29.9546 94.823C44.0815 96.9063 51.0704 96.5763 60.6064 97.1073" stroke="black" stroke-width="4.99999" stroke-linecap="round" stroke-linejoin="round"/>
<path d="M29.3389 81.0111C39.1638 81.1307 43.8093 80.2739 50.0596 79.7197" stroke="black" stroke-width="4.99999" stroke-linecap="round" stroke-linejoin="round"/>
</svg>
