<svg width="140" height="117" viewBox="0 0 140 117" fill="none" xmlns="http://www.w3.org/2000/svg">
<path d="M21.6523 86.9C14.1428 91.4881 9.34166 86.3042 5.77159 79.3167C0.72424 69.4312 3.18636 44.9726 8.2337 36.5989C12.9117 28.9134 19.6827 25.5033 25.7148 29.1621" fill="white"/>
<path d="M21.6523 86.9C14.1428 91.4881 9.34166 86.3042 5.77159 79.3167C0.72424 69.4312 3.18636 44.9726 8.2337 36.5989C12.9117 28.9134 19.6827 25.5033 25.7148 29.1621" stroke="black" stroke-width="4.99983" stroke-linecap="round" stroke-linejoin="round"/>
<path d="M76.9268 3.04378C57.5992 1.98877 27.3152 20.1469 20.175 41.6547C16.6049 52.7614 15.497 77.7568 22.0216 86.581C33.1011 101.696 47.5045 109.329 65.2318 112.788C71.5102 114.007 78.6503 114.314 84.5594 113.957C108.707 112.696 126.67 105.071 123.867 88.5901C143.655 83.5567 138.913 53.0051 123.793 52.8586C141.326 37.2672 124.971 14.5874 104.022 23.9115C101.302 20.4571 96.9931 4.14558 76.9268 3.04378V3.04378Z" fill="white" stroke="black" stroke-width="4.99983" stroke-linecap="round" stroke-linejoin="round"/>
<path d="M123.079 55.4204C107.799 60.2576 101.44 58.3199 97.224 58.4766C106.923 55.6826 109.454 55.233 119.536 51.4988C121.25 50.8616 122.985 50.0247 124.901 48.1536L126.01 55.6847C126.38 55.7366 124.207 55.2446 123.079 55.4204L123.079 55.4204Z" fill="black"/>
<path d="M125.775 90.5858C116.554 92.4465 105.007 93.689 97.3756 91.7563C102.461 90.8076 115.445 87.4814 123.131 86.2066C123.128 86.1907 123.116 86.2219 125.775 90.5858L125.775 90.5858Z" fill="black"/>
<path d="M31.0082 74.7998C42.9495 79.7684 46.3965 79.6945 52.4287 81.1952" stroke="black" stroke-width="4.99983" stroke-linecap="round" stroke-linejoin="round"/>
<path d="M30.1464 63.25C44.3036 65.3342 51.3206 65.0043 60.7998 65.5348" stroke="black" stroke-width="4.99983" stroke-linecap="round" stroke-linejoin="round"/>
<path d="M29.531 49.4388C39.3795 49.5595 44.0576 48.7027 50.2129 48.1487" stroke="black" stroke-width="4.99983" stroke-linecap="round" stroke-linejoin="round"/>
<path d="M105.217 21.1046C84.5596 25.8959 76.4346 19.6261 65.9706 15.4578C76.8039 21.7916 80.4972 30.4028 104.638 26.3416L105.217 21.1046V21.1046Z" fill="black"/>
</svg>
