<svg width="189" height="117" viewBox="0 0 189 117" fill="none" xmlns="http://www.w3.org/2000/svg">
<path d="M21.4208 86.9681C13.9111 91.5564 9.10988 86.3723 5.53973 79.3846C0.49228 69.499 2.95445 45.0398 8.0019 36.666C12.68 28.9803 19.4511 25.5702 25.4834 29.229" fill="white"/>
<path d="M21.4208 86.9681C13.9111 91.5564 9.10988 86.3723 5.53973 79.3846C0.49228 69.499 2.95445 45.0398 8.0019 36.666C12.68 28.9803 19.4511 25.5702 25.4834 29.229" stroke="black" stroke-width="4.99993" stroke-linecap="round" stroke-linejoin="round"/>
<path d="M76.6962 3.11019C57.3682 2.05515 27.0835 20.2137 19.9432 41.722C16.3731 52.8288 15.2651 77.8248 21.7899 86.6492C32.8696 101.764 47.2733 109.397 65.0009 112.857C71.2794 114.075 78.4197 114.383 84.329 114.026C105.952 112.439 118.659 95.7715 123.637 88.6583C137.733 88.4343 154.722 89.8611 170.69 92.125C194.573 95.5118 188.553 62.1592 166.147 59.2157C155.658 57.8381 147.053 55.4535 123.564 52.9261C136.219 49.0543 154.39 42.5468 166.947 40.3628C187.666 36.7619 175.245 7.05336 150.007 11.9888C132.821 15.3509 120.166 20.6926 103.792 23.9783C101.072 20.5239 96.7629 4.21201 76.6962 3.11019Z" fill="white" stroke="black" stroke-width="4.99993" stroke-linecap="round" stroke-linejoin="round"/>
<path d="M124.044 50.1648C108.459 53.9036 101.318 59.3869 97.6251 61.428C107.375 58.8181 109.776 57.8972 120.339 55.8955C122.136 55.557 124.278 55.4572 126.9 55.7527L124.044 50.1648V50.1648Z" fill="black"/>
<path d="M123.515 86.1605C114.109 86.3156 102.82 88.7594 95.7782 92.2803C105.962 91.9034 114.002 91.5958 123.694 91.0106C123.694 90.9848 123.51 88.5965 123.51 86.1602L123.515 86.1605Z" fill="black"/>
<path d="M30.7764 74.8677C42.7179 79.8363 46.1649 79.7625 52.1973 81.2632" stroke="black" stroke-width="4.99993" stroke-linecap="round" stroke-linejoin="round"/>
<path d="M29.9153 63.3176C44.0728 65.4019 51.09 65.0719 60.5693 65.6025" stroke="black" stroke-width="4.99993" stroke-linecap="round" stroke-linejoin="round"/>
<path d="M29.2992 49.506C39.1478 49.6266 43.826 48.7698 49.9814 48.2158" stroke="black" stroke-width="4.99993" stroke-linecap="round" stroke-linejoin="round"/>
<path d="M104.986 21.1714C84.3287 25.9628 76.2036 19.6929 65.7393 15.5244C76.5729 21.8583 80.2662 30.4698 104.408 26.4084L104.986 21.1714V21.1714Z" fill="black"/>
</svg>
